# xmcd
#
# Track frame offsets: 
#        150
#        17052
#        33262
#        60435
#        78712
#        105537
#
# Disc length: 1727 seconds
#
# Revision: 0
# Processed by: cddbd v1.5.2PL0 Copyright (c) Steve Scherf et al.
# Submitted via: ExactAudioCopy v1.0b1
#
DISCID=3f06bd06
DTITLE=Activate! - Save Me CDM
DYEAR=1995
DGENRE=Eurodance
TTITLE0=Save Me (Radio Edit)
TTITLE1=Save Me (Masterboy Remix)
TTITLE2=Save Me (Solid Base Remix)
TTITLE3=Save Me (Birch and Chris Remix)
TTITLE4=Save Me (Blue Bubble Remix)
TTITLE5=Save Me (Unknown Remix)
EXTD=
EXTT0=
EXTT1=
EXTT2=
EXTT3=
EXTT4=
EXTT5=
PLAYORDER=
